<?xml version="1.0" standalone="no"?>
<!DOCTYPE svg PUBLIC "-//W3C//DTD SVG 20010904//EN"
 "http://www.w3.org/TR/2001/REC-SVG-20010904/DTD/svg10.dtd">
<svg version="1.0" xmlns="http://www.w3.org/2000/svg"
 width="512.000000pt" height="512.000000pt" viewBox="0 0 512.000000 512.000000"
 preserveAspectRatio="xMidYMid meet">
<g transform="translate(0.000000,512.000000) scale(0.100000,-0.100000)"
fill="#000000" stroke="none">
<path d="M2700 4214 c-556 -75 -1092 -450 -1227 -859 -22 -68 -26 -98 -27
-205 0 -108 3 -133 23 -183 63 -158 193 -295 491 -518 208 -155 321 -264 361
-346 33 -69 38 -176 11 -229 -38 -74 -123 -132 -228 -155 -84 -19 -163 -2
-300 65 -94 46 -126 69 -187 129 -41 39 -80 83 -89 96 -14 24 -19 17 -177
-292 -116 -226 -160 -323 -156 -337 10 -30 160 -178 237 -233 162 -116 324
-164 518 -154 549 28 964 341 1097 826 24 87 26 113 27 276 0 196 -11 269 -60
391 -76 193 -179 307 -419 466 -168 111 -263 197 -291 264 -23 56 -21 150 4
207 46 104 218 227 299 214 82 -14 131 -84 140 -200 3 -40 0 -97 -6 -126 -6
-30 -10 -56 -7 -58 4 -4 584 160 621 176 46 19 62 323 25 443 -51 164 -178
281 -352 323 -65 16 -265 27 -328 19z"/>
<path d="M3275 1732 c-267 -92 -372 -383 -233 -644 38 -71 92 -122 167 -156
75 -35 215 -42 326 -17 109 24 223 84 282 148 225 247 119 587 -212 672 -83
21 -265 20 -330 -3z"/>
</g>
</svg>
